<?xml version="1.0" encoding="utf-8"?>
<!-- Generator: Adobe Illustrator 22.0.1, SVG Export Plug-In . SVG Version: 6.00 Build 0)  -->
<svg version="1.1" id="레이어_1" xmlns="http://www.w3.org/2000/svg" xmlns:xlink="http://www.w3.org/1999/xlink" x="0px"
	 y="0px" viewBox="0 0 438 124.9" style="enable-background:new 0 0 438 124.9;" xml:space="preserve">
<style type="text/css">
	.st0{clip-path:url(#SVGID_2_);fill:#FFFFFF;}
</style>
<g>
	<defs>
		<rect id="SVGID_1_" width="438" height="124.9"/>
	</defs>
	<clipPath id="SVGID_2_">
		<use xlink:href="#SVGID_1_"  style="overflow:visible;"/>
	</clipPath>
	<path class="st0" d="M165.1,27.3h-21.3v36.9c0.1,6.7-3.7,12.7-9.8,16c-2.3,1.1-5,1.6-7.8,1.6c-2.8,0-5.5-0.6-7.8-1.6
		c-6.1-3.3-9.9-9.3-9.8-16V27.3H87.4l-0.1,41.8c0.7,4.7,2,9.1,4.1,13.2l-0.1,0.1c0.3,0.6,0.7,1.2,1.1,1.8c0,0.1,0.1,0.2,0.1,0.3
		c0,0.1,0.1,0.1,0.1,0.2c0.3,0.5,0.7,1,1,1.5c0.1,0.2,0.2,0.3,0.3,0.5c0.4,0.6,0.9,1.2,1.4,1.8c0,0,0.1,0.1,0.1,0.1
		c0.5,0.6,1,1.2,1.5,1.8c0,0,0,0,0,0c2,2.2,4.2,4.1,6.6,5.8c0.2,0.2,0.5,0.3,0.7,0.5c0.2,0.1,0.5,0.3,0.7,0.4c0.5,0.3,1.1,0.7,1.6,1
		c0.2,0.1,0.3,0.2,0.5,0.3c0.6,0.4,1.3,0.7,2,1c0.1,0.1,0.2,0.1,0.3,0.2c0.7,0.3,1.5,0.7,2.2,1c0.1,0,0.1,0.1,0.2,0.1
		c0.8,0.3,1.6,0.6,2.4,0.9c0,0,0.1,0,0.1,0c2.5,0.8,5.2,1.3,7.8,1.6c0.7,0.1,1.4,0.1,2.1,0.1c0.1,0,0.1,0,0.2,0h0c0.6,0,1.1,0,1.7,0
		c0.6,0,1.1,0,1.7,0h0c0.1,0,0.1,0,0.2,0c0.7,0,1.4-0.1,2.1-0.1c2.7-0.3,5.3-0.8,7.8-1.6c0,0,0.1,0,0.1,0c0.8-0.3,1.6-0.6,2.4-0.9
		c0.1,0,0.1-0.1,0.2-0.1c0.7-0.3,1.5-0.6,2.2-1c0.1-0.1,0.2-0.1,0.3-0.2c0.7-0.3,1.3-0.7,2-1c0.2-0.1,0.3-0.2,0.5-0.3
		c0.6-0.3,1.1-0.7,1.6-1c0.2-0.1,0.5-0.3,0.7-0.4c0.2-0.2,0.5-0.3,0.7-0.5c2.4-1.7,4.6-3.6,6.6-5.8c0,0,0,0,0,0
		c0.5-0.6,1-1.2,1.5-1.8c0,0,0.1-0.1,0.1-0.1c0.5-0.6,0.9-1.2,1.4-1.8c0.1-0.2,0.2-0.3,0.3-0.5c0.3-0.5,0.7-1,1-1.5
		c0-0.1,0.1-0.1,0.1-0.2c0.1-0.1,0.1-0.2,0.1-0.3c0.4-0.6,0.7-1.2,1-1.8l-0.1-0.1c2.1-4.1,3.4-8.5,4.1-13.2L165.1,27.3z"/>
	<path class="st0" d="M293.3,45.1c-7.2-12.4-19.9-19.5-33.8-19.7H259c-14.5,0.1-28,7.7-35,21c-2.5,4.5-3.9,9.8-4.2,15.3v4.7
		c0.4,7.2,2.6,14.2,6.4,19.6c7.7,11.2,19.4,17.4,32.8,17.5c1.1,0.1,2.3,0,3.4-0.1c14.6-0.8,29.3-11.4,33.7-25.5h-21.6
		c-4.1,4.6-9.6,7-15.5,7c-2.1,0-4.3-0.3-6.5-1c-5.7-2-12.1-7.7-12.9-13.7H259h39c0.2-1.7,0.3-3.3,0.3-5v-1.3
		C298.2,57.1,296.6,50.5,293.3,45.1 M259,56.8h-19.1c2-6.8,9.3-12.1,16.2-12.7c1-0.1,1.9-0.2,2.9-0.2c5.9,0,11.1,2.3,15.3,6.5
		c1.5,2,3.1,4.1,3.8,6.4H259z"/>
	<path class="st0" d="M175.5,60v41.3h21.6l0.2-38c0.1-9,6.3-16.3,17.1-16.7l0.1-21.2c-9.5-0.1-19.4,3.2-26.7,9.3
		C180.3,41.1,175.6,50.3,175.5,60"/>
	<path class="st0" d="M422.6,80.1c-3.2-1.8-6.4-5.1-6.6-9.6L415.8,0h-21.2v68.8c0.2,8.3,2.5,15.8,7.9,21.9
		c9,10.4,21.9,11.5,35.5,10.6V82C433.3,81.9,427.9,82.4,422.6,80.1"/>
	<path class="st0" d="M67.2,37.3c-10.6-11.3-28-15-42.6-9.3C11.9,32.7,1.3,45.7,0,59.1v65.8l21.2-0.2L21.2,66
		c-0.1-6.3,2.4-12.1,7-15.7l11-11l12.2,12.2c7,7,7.5,17.9,0.5,24.9c-3.9,3.9-9.1,5.6-14.2,5.2c-3.3-0.2-6.5-1.3-9.1-3.3V102
		c5.6,1.6,12.2,1.7,17.9,0.6c12.4-2.1,25.1-12.8,29.1-25C81,63.8,77.3,47.6,67.2,37.3"/>
	<path class="st0" d="M379.6,44.3c-7-11.4-18.9-18.3-31.9-18.8c-15.1-0.7-29.3,7.2-36.6,20.8c-6.3,11.4-5.5,28.4,1.9,39
		c9.3,14.5,26.6,21,43.3,16.6V78.3c-1.2,0.9-2.6,1.5-3.9,2.1c-1.5,0.6-3.1,0.9-4.8,1.1c-0.1,0-0.2,0-0.3,0c-0.4,0-0.9,0.1-1.3,0.1
		c-1.3,0-2.6-0.1-3.9-0.4c-0.2,0-0.5-0.1-0.7-0.2c-0.3-0.1-0.7-0.2-1-0.3c-0.4-0.1-0.7-0.2-1.1-0.4c-0.2-0.1-0.4-0.2-0.7-0.3
		c-0.3-0.1-0.6-0.3-1-0.4c-1.7-0.8-3.2-1.9-4.6-3.3c-7-7-6.5-17.9,0.5-24.9l12.2-12.2L358,51.5c0.3,0.3,0.5,0.5,0.7,0.8
		c2.6,2.7,4.5,6.1,4.8,9.9v39.4h21.3l0.1-41.8C384.1,54.1,382.5,48.9,379.6,44.3"/>
</g>
</svg>
